#!OML:ASF I:\golf\golf\golf 2\Subject 1\2002-09-07\Subject1.ASF
:FULLY-SPECIFIED
:DEGREES
216
root -6.76882 17.722 0.969204 -9.85325 66.7059 -25.4279
lowerback 1.83809 -1.66793 -7.13592
upperback 5.30491 -2.14037 1.72666
thorax 4.84624 -1.38922 5.75856
lowerneck -11.732 8.69675 3.0292
upperneck 35.0641 16.7408 -8.83383
head 15.3846 6.67783 -1.30865
rclavicle 9.54166e-015 -1.90833e-014
rhumerus -15.4036 -1.02149 -95.0636
rradius 60.9069
rwrist -65.3027
rhand -46.1048 -1.57101
rfingers 7.12502
rthumb -18.8465 -30.678
lclavicle 9.54166e-015 -1.90833e-014
lhumerus 45.7614 -77.1942 58.6885
lradius 25.6022
lwrist 13.6398
lhand 0.890593 41.3245
lfingers 7.12502
lthumb -153.557 -110.5
rfemur -32.3549 8.00338 18.8278
rtibia 28.1412
rfoot -8.57091 3.34686
rtoes -1.13287
lfemur -18.1468 14.3133 1.33942
ltibia 29.4895
lfoot -10.7423 14.9208
ltoes -24.0924
217
root -6.7613 17.7189 1.01017 -9.3322 65.8131 -25.0005
lowerback 1.3917 -1.95671 -7.52276
upperback 5.35424 -2.48974 1.71233
thorax 5.23178 -1.59777 5.93413
lowerneck -11.6138 9.21583 2.87063
upperneck 34.5865 17.5392 -9.09171
head 15.2191 6.97442 -1.24883
rclavicle 2.06736e-014 -1.59028e-014
rhumerus -15.2192 -0.761941 -94.5713
rradius 62.1425
rwrist -65.1856
rhand -46.8684 -1.30065
rfingers 7.12502
rthumb -19.5808 -30.3346
lclavicle 2.06736e-014 -1.59028e-014
lhumerus 49.5747 -76.7103 55.3056
lradius 25.6968
lwrist 13.7672
lhand 0.314275 40.1098
lfingers 7.12502
lthumb -154.109 -111.633
rfemur -32.491 8.62315 19.0418
rtibia 28.1435
rfoot -8.53942 3.70273
rtoes -0.288453
lfemur -17.7126 14.9691 1.59809
ltibia 29.4827
lfoot -10.7864 15.0241
ltoes -23.6719
218
root -6.746 17.7218 1.02054 -9.32997 65.6246 -25.0067
lowerback 1.2005 -2.03098 -6.97647
upperback 5.24086 -2.56685 1.14445
thorax 5.16591 -1.58952 5.01619
lowerneck -10.9724 9.32867 3.99664
upperneck 34.279 17.4109 -9.26107
head 15.0506 7.078 -1.55766
rclavicle 2.14687e-014 9.54166e-015
rhumerus -15.5508 -2.19803 -94.5303
rradius 63.8524
rwrist -66.1549
rhand -48.266 0.346701
rfingers 7.12502
rthumb -20.924 -28.5448
lclavicle 2.14687e-014 9.54166e-015
lhumerus 58.8323 -77.8446 46.0666
lradius 26.1247
lwrist 14.1522
lhand -0.588463 39.173
lfingers 7.12502
lthumb -154.973 -112.446
rfemur -32.4391 8.30868 19.302
rtibia 28.1226
rfoot -8.54077 4.20166
rtoes 0.272994
lfemur -17.574 14.7739 1.72567
ltibia 29.5173
lfoot -10.7347 15.2694
ltoes -23.5105
219
root -6.73829 17.7217 1.04887 -9.31022 64.9093 -24.7896
lowerback 1.21391 -0.888497 -5.77549
upperback 4.80127 -1.0217 -0.386774
thorax 4.39489 -0.697347 2.80686
lowerneck -9.59246 8.46185 7.39579
upperneck 34.4044 15.3029 -9.09554
head 14.876 6.70257 -2.50233
rclavicle -2.38542e-014 1.59028e-015
rhumerus -16.7388 -8.02668 -94.8004
rradius 65.3267
rwrist -64.275
rhand -47.5526 -0.89282
rfingers 7.12502
rthumb -20.2385 -29.8585
lclavicle -2.38542e-014 1.59028e-015
lhumerus 88.4372 -80.7828 16.0544
lradius 27.1105
lwrist 14.6367
lhand -1.28734 38.7786
lfingers 7.12502
lthumb -155.643 -112.749
rfemur -32.2252 8.42499 19.6826
rtibia 28.1014
rfoot -8.50348 4.80898
rtoes 0.50378
lfemur -16.9416 15.0227 2.04838
ltibia 29.5473
lfoot -10.741 15.4676
ltoes -23.9002
220
root -6.73103 17.7203 1.0705 -9.80659 64.6821 -25.1984
lowerback 1.3583 -1.61908 -5.95373
upperback 4.94963 -2.00667 -0.0946552
thorax 4.58219 -1.20899 3.1791
lowerneck -9.81836 9.2079 6.84999
upperneck 34.0049 16.6122 -9.53928
head 14.9002 7.11773 -2.33965
rclavicle 6.04305e-014 -7.95139e-015
rhumerus -16.2517 -7.05777 -94.2102
rradius 66.3598
rwrist -63.4483
rhand -47.6011 -0.453481
rfingers 7.12502
rthumb -20.2851 -29.4142
lclavicle 6.04305e-014 -7.95139e-015
lhumerus 80.6385 -79.5444 24.7649
lradius 26.7229
lwrist 13.0305
lhand -1.99844 37.7582
lfingers 7.12502
lthumb -156.325 -113.68
rfemur -32.0366 8.28559 20.1414
rtibia 28.0717
rfoot -8.4582 5.17456
rtoes 1.22001
lfemur -16.6311 14.7822 2.48271
ltibia 29.5779
lfoot -10.7303 15.6649
ltoes -23.953
221
root -6.7257 17.7168 1.1115 -10.4158 63.9352 -25.4746
lowerback 1.61143 -2.09092 -6.27754
upperback 5.06842 -2.65259 0.144878
thorax 4.66258 -1.55427 3.59248
lowerneck -9.65411 9.8683 6.443
upperneck 33.5401 17.7341 -9.90114
head 14.7858 7.50845 -2.21953
rclavicle 6.83819e-014 -1.59028e-015
rhumerus -15.969 -6.29673 -93.7266
rradius 67.4968
rwrist -62.6662
rhand -48.181 0.239986
rfingers 7.12502
rthumb -20.8423 -28.6605
lclavicle 6.83819e-014 -1.59028e-015
lhumerus 74.6062 -78.4496 31.5371
lradius 26.4593
lwrist 11.2784
lhand -2.68981 36.5774
lfingers 7.12502
lthumb -156.988 -114.776
rfemur -31.6033 8.78059 20.7228
rtibia 28.0912
rfoot -8.46935 5.38986
rtoes 2.09365
lfemur -15.7496 14.9306 3.16109
ltibia 29.5786
lfoot -10.847 15.8496
ltoes -23.8326
222
root -6.718 17.7189 1.14682 -9.96619 63.4654 -25.0508
lowerback 1.50769 -2.9344 -7.31725
upperback 5.16667 -3.78255 0.804791
thorax 5.0893 -2.19644 4.80745
lowerneck -9.94981 10.8001 4.82741
upperneck 33.0134 19.5022 -10.2654
head 14.6837 8.01265 -1.76418
rclavicle 2.38542e-015 -4.77083e-015
rhumerus -15.2565 -4.16238 -92.8151
rradius 68.5429
rwrist -62.4787
rhand -49.5522 2.2106
rfingers 7.12502
rthumb -22.1592 -26.5394
lclavicle 2.38542e-015 -4.77083e-015
lhumerus 63.5597 -76.0985 43.9603
lradius 25.9234
lwrist 8.76958
lhand -3.22373 35.6245
lfingers 7.12502
lthumb -157.501 -115.666
rfemur -31.6364 9.10862 20.8094
rtibia 28.1182
rfoot -8.48709 5.55562
rtoes 2.54701
lfemur -15.4575 15.1091 3.26902
ltibia 29.6027
lfoot -10.8059 16.0155
ltoes -24.0131
223
root -6.71039 17.7219 1.16803 -8.82883 62.7772 -23.9889
lowerback 1.39539 -3.42468 -8.0886
upperback 5.17511 -4.43189 1.09229
thorax 5.35586 -2.57382 5.49889
lowerneck -10.4934 11.4664 3.57608
upperneck 32.6913 20.7445 -10.3929
head 14.6611 8.35245 -1.35784
rclavicle 1.01778e-013 -2.22639e-014
rhumerus -14.517 -3.22621 -92.0159
rradius 69.6161
rwrist -62.232
rhand -50.6628 3.88155
rfingers 7.12502
rthumb -23.2251 -24.738
lclavicle 1.01778e-013 -2.22639e-014
lhumerus 60.1876 -74.1953 48.6317
lradius 25.6014
lwrist 6.94615
lhand -3.93873 34.4776
lfingers 7.12502
lthumb -158.187 -116.732
rfemur -31.8566 9.48258 20.5986
rtibia 28.1416
rfoot -8.43221 5.96786
rtoes 2.83178
lfemur -15.1913 15.3692 3.0283
ltibia 29.6458
lfoot -10.5721 16.4343
ltoes -24.8882
224
root -6.70545 17.7222 1.18836 -8.1426 61.7677 -23.2212
lowerback 1.3796 -3.50821 -8.37254
upperback 5.11687 -4.53692 0.972355
thorax 5.3365 -2.63321 5.52557
lowerneck -10.4981 11.8418 3.52884
upperneck 32.3782 21.3054 -10.5877
head 14.6014 8.56922 -1.32205
rclavicle -1.98785e-014 -2.38542e-014
rhumerus -14.1869 -3.77826 -91.6324
rradius 70.8519
rwrist -61.6302
rhand -50.5255 3.75768
rfingers 7.12502
rthumb -23.0934 -24.8784
lclavicle -1.98785e-014 -2.38542e-014
lhumerus 62.7086 -73.6117 46.7654
lradius 25.6536
lwrist 6.31718
lhand -5.11506 32.8895
lfingers 7.12502
lthumb -159.317 -118.193
rfemur -31.9059 9.84951 20.6866
rtibia 28.1671
rfoot -8.34377 6.65156
rtoes 3.12401
lfemur -14.6066 15.7472 3.04774
ltibia 29.6998
lfoot -10.3716 16.9245
ltoes -26.1031
225
root -6.70195 17.7238 1.2164 -7.90711 61.0223 -22.8755
lowerback 1.42363 -3.6222 -8.61102
upperback 5.059 -4.68877 0.865661
thorax 5.28857 -2.71279 5.54176
lowerneck -10.2582 12.1762 3.70921
upperneck 31.9848 21.749 -10.8312
head 14.4767 8.77729 -1.37784
rclavicle 3.65764e-014 -3.49861e-014
rhumerus -14.0007 -4.34561 -91.3209
rradius 72.2674
rwrist -61.3672
rhand -50.5362 5.31792
rfingers 7.12502
rthumb -23.1037 -23.3169
lclavicle 3.65764e-014 -3.49861e-014
lhumerus 66.22 -73.2031 43.8634
lradius 25.7503
lwrist 6.04061
lhand -6.03837 31.4176
lfingers 7.12502
lthumb -160.205 -119.57
rfemur -31.827 10.0804 20.9258
rtibia 28.1807
rfoot -8.29488 7.18952
rtoes 3.57297
lfemur -14.0884 15.8949 3.2365
ltibia 29.7605
lfoot -10.1919 17.3094
ltoes -27.0392
226
root -6.69902 17.7259 1.24638 -7.68018 60.5671 -22.5196
lowerback 1.56907 -3.86167 -8.93511
upperback 4.99022 -5.01893 0.802473
thorax 5.21582 -2.88457 5.64804
lowerneck -10.0283 12.5384 3.69642
upperneck 31.541 22.2472 -11.0371
head 14.3089 8.9957 -1.38104
rclavicle 4.21423e-014 -5.08889e-014
rhumerus -13.6874 -4.70278 -90.9374
rradius 73.6349
rwrist -61.1059
rhand -51.1488 7.58648
rfingers 7.12502
rthumb -23.6913 -20.9735
lclavicle 4.21423e-014 -5.08889e-014
lhumerus 68.0975 -72.5083 42.8094
lradius 25.7339
lwrist 5.55754
lhand -6.21728 30.1417
lfingers 7.12502
lthumb -160.377 -120.829
rfemur -31.6961 10.4265 20.9923
rtibia 28.1803
rfoot -8.32016 7.33594
rtoes 3.67636
lfemur -13.7015 15.7009 3.34676
ltibia 29.839
lfoot -9.97391 17.72
ltoes -27.8141
227
root -6.696 17.7288 1.27159 -7.277 60.1748 -22.0649
lowerback 1.62457 -4.17586 -9.26186
upperback 4.91181 -5.4428 0.754448
thorax 5.20548 -3.10543 5.75934
lowerneck -9.87424 12.9354 3.56299
upperneck 31.0897 22.8104 -11.2248
head 14.1454 9.22826 -1.34299
rclavicle 5.56597e-015 3.18055e-015
rhumerus -13.2016 -5.23968 -90.5676
rradius 74.9095
rwrist -60.1301
rhand -51.9154 7.96699
rfingers 7.12502
rthumb -24.4264 -20.4958
lclavicle 5.56597e-015 3.18055e-015
lhumerus 68.4131 -71.5899 43.3564
lradius 25.6099
lwrist 5.08557
lhand -6.35828 28.4112
lfingers 7.12502
lthumb -160.512 -122.545
rfemur -31.6753 10.6597 20.9691
rtibia 28.2003
rfoot -8.32882 7.51384
rtoes 3.95459
lfemur -13.4349 15.3917 3.339
ltibia 29.8884
lfoot -10.0254 18.1636
ltoes -27.7833
228
root -6.68854 17.7274 1.29916 -7.51465 59.7543 -22.289
lowerback 1.58403 -4.4719 -9.1403
upperback 4.9199 -5.8352 0.730894
thorax 5.2891 -3.29838 5.63744
lowerneck -9.7974 13.2994 3.54044
upperneck 30.678 23.304 -11.403
head 14.0239 9.43792 -1.32334
rclavicle 6.44062e-014 -3.81667e-014
rhumerus -12.7671 -5.77627 -90.4012
rradius 76.349
rwrist -59.3821
rhand -52.7254 9.71082
rfingers 7.12502
rthumb -25.2027 -18.6451
lclavicle 6.44062e-014 -3.81667e-014
lhumerus 69.3644 -70.7171 43.1364
lradius 25.5894
lwrist 4.85459
lhand -6.81194 26.6104
lfingers 7.12502
lthumb -160.948 -124.303
rfemur -31.5654 10.6732 21.3992
rtibia 28.2091
rfoot -8.28709 7.92533
rtoes 4.67934
lfemur -13.1097 15.4448 3.6997
ltibia 29.9269
lfoot -9.4237 18.4631
ltoes -30.129
229
root -6.67593 17.7234 1.33361 -7.84045 59.2226 -22.5204
lowerback 1.5446 -4.66676 -8.97816
upperback 4.93992 -6.09017 0.656828
thorax 5.34807 -3.41863 5.44816
lowerneck -9.67451 13.5962 3.71284
upperneck 30.2957 23.6935 -11.6527
head 13.9361 9.61775 -1.3784
rclavicle 3.26007e-014 -1.59028e-014
rhumerus -12.3888 -6.37983 -90.199
rradius 77.6782
rwrist -58.1556
rhand -53.0255 10.825
rfingers 7.12502
rthumb -25.4901 -17.4901
lclavicle 3.26007e-014 -1.59028e-014
lhumerus 70.778 -70.0402 42.4442
lradius 25.6927
lwrist 4.48962
lhand -7.49155 25.2956
lfingers 7.12502
lthumb -161.602 -125.554
rfemur -31.3157 10.7425 21.9085
rtibia 28.1765
rfoot -8.31412 8.41203
rtoes 4.80522
lfemur -12.6193 15.694 4.15318
ltibia 30.0223
lfoot -8.66555 18.5948
ltoes -32.7446
230
root -6.66975 17.7242 1.37286 -8.25312 58.6263 -22.8139
lowerback 1.63546 -4.83097 -8.94692
upperback 4.9184 -6.32239 0.688444
thorax 5.31261 -3.53245 5.45734
lowerneck -9.5219 13.8921 3.73078
upperneck 29.9082 24.1006 -11.8713
head 13.8176 9.7977 -1.40017
rclavicle -1.03368e-013 6.36111e-015
rhumerus -11.8954 -7.38493 -89.7186
rradius 78.5882
rwrist -54.7038
rhand -52.7107 6.80479
rfingers 7.12502
rthumb -25.1886 -21.5531
lclavicle -1.03368e-013 6.36111e-015
lhumerus 73.1681 -69.4204 40.6511
lradius 25.9201
lwrist 4.0503
lhand -8.43168 23.9723
lfingers 7.12502
lthumb -162.507 -126.795
rfemur -31.0184 11.0242 22.4543
rtibia 28.1347
rfoot -8.36225 8.70642
rtoes 4.46022
lfemur -12.0964 15.5962 4.76206
ltibia 30.1844
lfoot -9.15097 18.6626
ltoes -30.7763
